<svg fill="none" height="70" viewBox="0 0 270 70" width="270" xmlns="http://www.w3.org/2000/svg"><g clip-rule="evenodd" fill-rule="evenodd"><path d="m25 70h-23c-1.104569 0-2-.8954-2-2v-66c0-1.104569.89543-2 2-2h23 220 23c1.105 0 2 .89543 2 2v42.1716c0 .5304-.211 1.0391-.586 1.4142l-23.828 23.8284c-.375.3751-.884.5858-1.414.5858zm231.343 0c1.061 0 2.078-.4214 2.829-1.1716l9.656-9.6568c.751-.7502 1.172-1.7676 1.172-2.8285v-6.9289c0-.1528-.185-.2294-.293-.1213l-20.414 20.4142c-.108.1081-.032.2929.121.2929z" fill="#f3f5f9"/><path d="m242.879 63.7071 20.828-20.8284c.188-.1876.293-.4419.293-.7071v-35.1716c0-.55228-.448-1-1-1h-256c-.55228 0-1 .44772-1 1v56c0 .5523.44772 1 1 1h235.172c.265 0 .519-.1054.707-.2929zm-235.879 1.2929c-1.10457 0-2-.8954-2-2v-56c0-1.10457.89543-2 2-2h256c1.105 0 2 .89543 2 2v35.1716c0 .5304-.211 1.0391-.586 1.4142l-20.828 20.8284c-.375.3751-.884.5858-1.414.5858z" fill="#1c1d29" opacity=".2"/></g></svg>