<svg width="270" height="70" fill="none" xmlns="http://www.w3.org/2000/svg"><path fill-rule="evenodd" clip-rule="evenodd" d="M25 70H2a2 2 0 0 1-2-2V2a2 2 0 0 1 2-2h266a2 2 0 0 1 2 2v42.172a2 2 0 0 1-.586 1.414l-23.828 23.828a2 2 0 0 1-1.414.586H25Zm231.343 0a4.002 4.002 0 0 0 2.829-1.172l9.656-9.656A3.997 3.997 0 0 0 270 56.343v-6.929a.172.172 0 0 0-.293-.121l-20.414 20.414a.171.171 0 0 0 .121.293h6.929Z" fill="#fff"/><path d="M7 64.5A1.5 1.5 0 0 1 5.5 63V7A1.5 1.5 0 0 1 7 5.5h256a1.5 1.5 0 0 1 1.5 1.5v35.172a1.5 1.5 0 0 1-.439 1.06l-20.829 20.829a1.5 1.5 0 0 1-1.06.439H7Z" stroke="#7731E9"/></svg>