<svg height="260pt" preserveAspectRatio="xMidYMid meet" viewBox="0 0 260 260" width="260pt" xmlns="http://www.w3.org/2000/svg"><path d="m369 2585c-180-49-321-196-358-374-8-37-11-319-11-927l1-874 27-79c58-161 178-273 345-317 41-11 169-14 633-14 626 0 632 1 709 53 17 12 209 200 428 418 341 341 401 406 425 456l27 58 2 605 2 605-23 66c-44 126-132 230-240 283-118 58-75 56-1036 55-683-1-896-4-931-14zm700-329c28-26 28-79-1-106-21-19-34-20-284-20-258 0-263 0-289-22-42-37-38-125 7-155 7-4 117-10 243-13 246-5 260-8 318-62 97-91 95-268-4-356-63-55-90-60-378-60-263 1-265 1-288 24-29 29-29 68 0 98 23 23 25 23 281 23 186 1 265 4 281 13 49 26 57 117 14 156-19 17-41 19-242 20-177 1-229 4-259 17-197 84-183 390 21 451 27 8 128 11 300 11 239 0 261-2 280-19zm51-1144c21-26 19-76-5-102-14-15-45-17-308-18-161 0-304-1-319-1l-26-1 1-92 2-93 314-1 315-1 23-27c28-33 29-56 2-90l-20-26h-319-318v-146c0-129-2-149-18-164-37-36-97-26-111 18-7 21-10 636-4 725 3 40 46 45 419 43l354-1z" transform="matrix(.1 0 0 -.1 0 260)"/></svg>