<svg width="100" height="100" viewBox="0 0 100 100" fill="none" xmlns="http://www.w3.org/2000/svg">
<g clip-path="url(#clip0_7_1053)">
<path d="M45.5961 50.504C45.5961 51.998 44.7312 52.9078 43.5293 52.9078C42.3162 52.9078 41.4625 52.0092 41.4625 50.504V45.2134H39.2721V50.4142C39.2721 53.1549 40.9907 54.8848 43.5293 54.8848C46.0679 54.8848 47.7865 53.1549 47.7865 50.4142V45.2134H45.5961V50.504ZM86.4832 50.987L85.1577 47.6734L83.8435 50.987H86.4832ZM90.1562 54.6714H87.9434L87.1796 52.7393H83.1583L82.3945 54.6714H80.1816L84.1692 45.2134H86.1349L90.1562 54.6714ZM77.1713 48.4821C77.1713 48.0665 77.0028 47.6734 76.7556 47.4487C76.4636 47.2016 76.0592 47.0668 75.4863 47.0668H73.3971V49.9087H75.4976C76.0592 49.9087 76.4636 49.7851 76.7444 49.538C76.9915 49.3021 77.1713 48.909 77.1713 48.4821ZM76.9578 51.4925L79.6537 54.6714H77.1039L74.5877 51.6835H73.3858V54.6714H71.2404V45.2134H75.5987C76.8118 45.2134 77.7104 45.5055 78.3507 46.0559C78.9909 46.6063 79.3616 47.4487 79.3616 48.4484C79.3616 49.6953 78.8225 50.9983 76.9578 51.4925ZM21.8951 45.2134H19.7048V54.6714H26.3321V52.7506H21.8951V45.2134ZM14.0659 52.8854C12.4484 52.8854 11.2802 51.6048 11.2802 49.9424C11.2802 48.2687 12.4484 46.9994 14.0659 46.9994C14.841 46.9994 15.4813 47.2802 16.0541 47.8082L17.4695 46.3929C16.6045 45.5167 15.4139 45 14.0435 45C11.1904 45 9 47.1679 9 49.9424C9 52.7169 11.1904 54.8848 14.0435 54.8848C15.4813 54.8848 16.7393 54.3007 17.593 53.3234L16.1889 51.9306C15.6161 52.5484 14.9421 52.8854 14.0659 52.8854ZM57.2107 49.9424C57.2107 48.235 55.9751 47.1005 54.1442 47.1005H52.6952V52.773H54.1442C55.9864 52.7843 57.2107 51.6498 57.2107 49.9424ZM59.491 49.9424C59.491 52.773 57.4017 54.6714 54.3015 54.6714H50.5161V45.2134H54.2116C57.3118 45.2134 59.491 47.1117 59.491 49.9424ZM34.8464 49.9536C34.8464 48.235 33.7119 46.977 32.1281 46.977C30.5331 46.977 29.4098 48.2238 29.4098 49.9536C29.4098 51.661 30.5443 52.8966 32.1281 52.8966C33.7119 52.9078 34.8464 51.661 34.8464 49.9536ZM37.1154 49.9536C37.1154 52.7169 35.0262 54.8848 32.1281 54.8848C29.2301 54.8848 27.1408 52.7169 27.1408 49.9536C27.1296 47.1791 29.2189 45 32.1281 45C35.0262 45 37.1154 47.1791 37.1154 49.9536ZM60.4795 54.6714H68.6681V52.7169H61.7712C61.4679 53.4582 61.0299 54.1097 60.4795 54.6714ZM67.5111 50.8747V48.9427H62.2318C62.2767 49.2684 62.3104 49.6054 62.3104 49.9649C62.3104 50.2794 62.2879 50.5827 62.2542 50.8747H67.5111ZM60.3784 45.2134H68.6232V47.1679H61.7375C61.4118 46.4266 60.9512 45.7751 60.3784 45.2134Z" fill="#0C0C29"/>
</g>
<defs>
<clipPath id="clip0_7_1053">
<rect width="81.1562" height="9.88478" fill="white" transform="translate(9 45)"/>
</clipPath>
</defs>
</svg>
